<svg width="34" height="35" viewBox="0 0 34 35" fill="none" xmlns="http://www.w3.org/2000/svg">
<path d="M17 34.3477C26.3888 34.3477 34 26.7365 34 17.3477C34 7.95882 26.3888 0.347656 17 0.347656C7.61116 0.347656 0 7.95882 0 17.3477C0 26.7365 7.61116 34.3477 17 34.3477Z" fill="white"/>
<path d="M17 1.15516C20.2026 1.15516 23.3332 2.10483 25.9961 3.88409C28.6589 5.66334 30.7344 8.19226 31.9599 11.1511C33.1855 14.1098 33.5062 17.3656 32.8814 20.5067C32.2566 23.6477 30.7144 26.5329 28.4498 28.7975C26.1853 31.062 23.3 32.6042 20.159 33.229C17.018 33.8538 13.7622 33.5332 10.8034 32.3076C7.84461 31.082 5.31569 29.0066 3.53644 26.3437C1.75718 23.6809 0.807508 20.5502 0.807508 17.3477C0.812008 13.0545 2.51944 8.93851 5.55515 5.9028C8.59086 2.86709 12.7069 1.15966 17 1.15516V1.15516ZM17 0.347656C13.6377 0.347656 10.3509 1.34469 7.55531 3.21267C4.75968 5.08066 2.58075 7.7357 1.29406 10.842C0.00736583 13.9484 -0.329291 17.3665 0.326658 20.6642C0.982607 23.9619 2.6017 26.991 4.97919 29.3685C7.35669 31.746 10.3858 33.3651 13.6835 34.021C16.9812 34.677 20.3993 34.3403 23.5056 33.0536C26.612 31.7669 29.267 29.588 31.135 26.7924C33.003 23.9967 34 20.7099 34 17.3477C34 12.839 32.2089 8.51496 29.0208 5.32684C25.8327 2.13872 21.5087 0.347656 17 0.347656V0.347656Z" fill="#81A2B2" fill-opacity="0.25"/>
<path d="M9.19374 21.601L11.1639 24.602C11.24 24.7203 11.3459 24.8178 11.4714 24.8854C11.5969 24.953 11.738 24.9884 11.8815 24.9884C12.0249 24.9884 12.1661 24.953 12.2916 24.8854C12.4171 24.8178 12.5229 24.7203 12.5991 24.602L16.9984 17.6329L13.7268 12.4375L9.167 19.8663C9.00473 20.1291 8.92125 20.4308 8.92597 20.7373C8.9307 21.0439 9.02345 21.343 9.19374 21.601V21.601Z" fill="#00A99D"/>
<path d="M24.8359 19.8663L20.2761 12.4375L17 17.6416L21.4038 24.6107C21.48 24.7289 21.5858 24.8264 21.7113 24.894C21.8368 24.9616 21.9779 24.9971 22.1214 24.9971C22.2649 24.9971 22.406 24.9616 22.5315 24.894C22.657 24.8264 22.7628 24.7289 22.839 24.6107L24.8091 21.6096C24.9797 21.3502 25.0726 21.0496 25.0773 20.7417C25.082 20.4337 24.9984 20.1306 24.8359 19.8663V19.8663Z" fill="#EF445A"/>
<path d="M19.0218 10.3939L17.7203 8.38601C17.6443 8.26678 17.5383 8.16838 17.4124 8.10014C17.2864 8.03191 17.1446 7.99609 17.0004 7.99609C16.8563 7.99609 16.7145 8.03191 16.5885 8.10014C16.4625 8.16838 16.3565 8.26678 16.2806 8.38601L14.9791 10.3982L13.7266 12.4365L16.9982 17.6406L20.2743 12.4582L19.0218 10.3939Z" fill="#01445A"/>
</svg>
